<?xml version="1.0" encoding="UTF-8"?>
<!-- Created with Inkscape (http://www.inkscape.org/) -->
<svg width="153.969mm" height="153.969mm" version="1.1" viewBox="0 0 153.969 153.969" xmlns="http://www.w3.org/2000/svg">
 <g transform="translate(1.98438 -145.015)" stroke="#fff" stroke-width="3.96875">
  <path d="m17.5002 147c-9.695 0-17.5002 8.65662-17.5002 19.4099v111.18c0 10.7532 7.80522 19.4099 17.5002 19.4099h115c9.695 0 17.5002-8.65662 17.5002-19.4099v-94.6494l-74.9949 83.1809-0.635106-0.70384-0.17518 0.18054-63.5176-70.4502h32.2735l31.8844 35.3652 75.1649-83.3694v-0.14386h-64.1449z" fill="#000035" stroke="#fff" stroke-width="3.96875"/>
 </g>
 <g transform="translate(1.98438 -145.015)">
  <path d="m17.5002 147c-9.695 0-17.5002 8.65662-17.5002 19.4099v111.18c0 10.7532 7.80522 19.4099 17.5002 19.4099h115c9.695 0 17.5002-8.65662 17.5002-19.4099v-94.6494l-74.9949 83.1809-0.635106-0.70384-0.17518 0.18054-63.5176-70.4502h32.2735l31.8844 35.3652 75.1649-83.3694v-0.14386h-64.1449z" fill="#000035" stroke-width=".280209"/>
 </g>
</svg>
